<?xml version="1.0" standalone="no"?>
<!DOCTYPE svg PUBLIC "-//W3C//DTD SVG 20010904//EN"
 "http://www.w3.org/TR/2001/REC-SVG-20010904/DTD/svg10.dtd">
<svg version="1.0" xmlns="http://www.w3.org/2000/svg"
 width="606.000000pt" height="606.000000pt" viewBox="0 0 606.000000 606.000000"
 preserveAspectRatio="xMidYMid meet">
<metadata>
Created by potrace 1.14, written by Peter Selinger 2001-2017
</metadata>
<g transform="translate(0.000000,606.000000) scale(0.100000,-0.100000)"
fill="#000000" stroke="none">
<path d="M3020 5013 c0 -5 -55 -14 -122 -20 -111 -10 -175 -22 -378 -69 -70
-16 -258 -89 -352 -135 -31 -16 -94 -53 -140 -83 -267 -174 -447 -354 -625
-626 -47 -73 -173 -322 -173 -343 0 -9 -4 -17 -10 -17 -5 0 -10 -9 -10 -20 0
-11 -5 -20 -11 -20 -7 0 -9 -11 -5 -27 3 -16 3 -22 -1 -14 -7 18 -25 -34 -56
-169 -50 -214 -70 -370 -47 -370 10 0 10 -3 0 -15 -14 -17 -60 -21 -60 -5 0 6
-5 10 -11 10 -5 0 -7 -4 -4 -10 4 -6 -40 -10 -125 -10 -199 0 -347 -43 -499
-145 -38 -26 -85 -64 -106 -86 -43 -47 -115 -151 -146 -210 -12 -24 -27 -48
-34 -56 -27 -26 -50 -164 -50 -298 0 -154 22 -244 87 -365 22 -41 52 -97 67
-125 117 -219 316 -377 566 -450 84 -24 123 -29 295 -40 56 -3 122 -16 195
-39 117 -36 145 -42 350 -80 322 -61 304 -60 1570 -58 638 0 1187 4 1220 7
172 19 288 53 479 142 157 74 213 84 332 63 274 -48 458 44 574 284 27 56 70
162 96 236 42 122 47 146 52 248 3 79 1 112 -7 112 -7 0 -11 24 -11 65 0 69
-28 212 -59 300 -65 184 -266 381 -436 426 -16 4 -55 15 -85 23 -39 12 -101
17 -210 17 -159 1 -167 3 -67 14 51 6 57 9 57 30 0 69 -56 312 -110 476 -33
101 -71 240 -85 309 -31 155 -73 247 -145 314 -28 27 -53 46 -56 44 -2 -3 3
-22 11 -43 22 -51 13 -55 -10 -4 -10 22 -38 58 -62 79 -35 30 -54 39 -99 45
-31 4 -58 4 -62 1 -3 -3 2 -6 11 -6 8 0 28 -5 44 -12 l28 -11 -40 -8 c-22 -5
-54 -11 -71 -15 -23 -4 -36 -15 -48 -40 -9 -19 -20 -33 -25 -29 -5 3 -17 -2
-25 -11 -34 -34 -2 29 38 75 l21 23 -43 -22 c-23 -12 -47 -31 -53 -42 -9 -16
-13 -18 -20 -7 -9 15 -8 16 -37 -32 -35 -57 -24 -86 27 -72 15 4 21 1 21 -11
0 -9 3 -15 8 -14 11 3 67 -29 82 -47 24 -28 3 -26 -43 5 -52 35 -92 39 -100
10 -3 -10 1 -25 9 -31 8 -7 12 -14 10 -16 -3 -3 9 -18 25 -34 30 -29 35 -44
20 -53 -5 -4 -25 13 -45 36 -20 23 -36 37 -36 30 0 -6 11 -23 25 -38 24 -26
34 -51 16 -40 -10 7 -21 -16 -22 -47 0 -15 -2 -17 -6 -7 -26 69 -25 67 -33 45
-7 -17 -9 -17 -9 -2 -1 9 -5 17 -10 17 -4 0 -7 -12 -5 -27 4 -27 4 -26 -8 4
-19 47 -28 50 -22 7 4 -38 4 -38 -11 9 -19 56 -30 62 -21 10 5 -28 4 -34 -3
-23 -6 8 -11 23 -11 33 0 10 -7 20 -15 23 -8 4 -15 14 -15 23 0 21 -17 47 -25
39 -3 -3 0 -21 8 -40 8 -18 17 -55 21 -82 4 -28 17 -79 28 -114 16 -53 17 -66
6 -73 -10 -7 -10 -9 0 -9 6 0 12 -6 12 -13 0 -23 21 -37 42 -26 14 7 18 6 18
-5 0 -8 8 -20 18 -25 15 -9 15 -10 -4 -11 -18 0 -22 -6 -20 -30 0 -16 -3 -28
-9 -27 -5 1 -10 17 -9 35 0 17 -3 32 -8 32 -4 0 -8 -4 -8 -10 0 -5 -5 -10 -11
-10 -5 0 -7 5 -4 10 3 6 2 10 -4 10 -17 0 -25 -42 -10 -51 10 -6 7 -9 -11 -9
-23 0 -23 -1 -8 -17 14 -13 15 -18 4 -27 -18 -14 -29 -63 -16 -71 18 -11 12
-38 -7 -31 -9 4 -20 1 -24 -6 -4 -7 -11 -9 -15 -5 -4 3 -2 13 5 20 11 15 5 47
-9 47 -9 0 -22 -88 -15 -100 3 -5 -5 -6 -17 -3 l-23 5 24 -21 c23 -21 23 -21
2 -21 -12 0 -21 4 -21 10 0 5 -13 16 -29 25 -28 14 -31 14 -50 -11 -12 -15
-21 -34 -21 -43 0 -13 -2 -13 -9 -2 -6 9 -11 10 -15 2 -10 -16 -46 -14 -46 3
0 12 -20 26 -36 26 -2 0 -4 -13 -4 -30 0 -26 -4 -30 -26 -30 -19 0 -25 -4 -21
-15 4 -8 2 -17 -3 -20 -12 -7 -18 17 -10 40 4 11 4 29 0 39 -6 17 -8 15 -18
-13 -7 -18 -9 -37 -7 -41 3 -5 1 -11 -5 -15 -5 -3 -10 -17 -10 -31 0 -13 -5
-24 -10 -24 -7 0 -9 13 -6 33 15 96 19 113 28 125 6 6 22 12 36 12 20 0 23 3
14 12 -7 7 -12 19 -12 27 1 13 3 13 15 -3 7 -10 18 -15 24 -12 13 8 35 76 27
83 -11 11 27 43 51 43 26 0 28 -8 11 -45 -9 -19 -9 -28 0 -37 16 -16 15 -28
-3 -28 -8 0 -15 -7 -15 -15 0 -8 -8 -15 -17 -15 -12 0 -14 -3 -7 -10 15 -15
60 4 66 27 2 10 6 47 7 82 4 106 26 134 103 133 39 -1 39 -1 32 31 l-6 32 21
-27 c11 -14 25 -37 30 -50 9 -22 10 -22 26 16 13 32 14 44 4 67 -8 21 -8 33
-1 42 7 8 7 18 2 27 -8 12 -10 10 -10 -7 0 -27 -18 -40 -26 -19 -3 9 -12 16
-20 16 -8 0 -11 -6 -7 -17 5 -12 3 -14 -8 -7 -8 5 -17 9 -21 9 -7 0 -48 50
-48 60 0 10 48 55 60 55 6 0 13 14 17 30 3 17 9 30 14 30 17 0 9 50 -11 70
-12 12 -18 25 -15 30 8 13 -21 66 -41 74 -9 3 -14 12 -11 20 9 22 -5 28 -19 8
-11 -15 -13 -12 -19 21 -4 20 -11 37 -16 37 -5 0 -6 -14 -2 -32 5 -26 4 -30
-10 -25 -10 4 -20 -1 -26 -11 -8 -14 -10 -10 -11 20 0 31 -3 35 -20 31 -16 -4
-20 0 -20 20 0 27 -29 45 -41 25 -6 -9 -9 -8 -14 4 -4 9 -13 14 -21 11 -8 -3
-14 1 -14 11 0 8 -9 20 -20 26 -17 9 -22 7 -29 -12 -9 -23 -9 -23 -16 5 -11
42 -25 32 -25 -18 0 -33 4 -45 15 -45 8 0 15 -9 15 -20 0 -11 -5 -20 -11 -20
-8 0 -8 -5 1 -15 17 -21 27 -19 34 8 5 17 8 19 15 8 5 -7 13 -11 19 -7 6 3 15
-2 21 -11 9 -16 10 -15 11 7 0 19 3 21 9 11 7 -11 10 -9 13 10 3 22 6 20 26
-18 31 -60 28 -105 -5 -72 -15 15 -28 -8 -14 -24 12 -15 2 -33 -18 -32 -14 0
-32 34 -24 48 2 4 -1 7 -6 7 -6 0 -11 -4 -11 -8 0 -17 -44 -5 -51 14 -4 10 -8
13 -8 5 -1 -7 -7 -11 -16 -7 -8 3 -15 4 -15 3 -1 -1 -3 -36 -6 -77 -6 -73 -5
-77 31 -137 22 -38 42 -60 49 -56 6 3 8 3 4 -1 -4 -5 13 -32 38 -62 24 -30 44
-63 44 -72 0 -10 4 -22 8 -27 5 -6 5 -23 1 -40 -3 -16 -7 -24 -8 -16 -1 11 -4
11 -16 1 -13 -11 -15 -9 -13 18 2 17 -1 31 -7 31 -5 1 -10 -8 -10 -19 0 -10
-4 -22 -8 -26 -4 -4 -7 -16 -7 -26 0 -10 -5 -18 -12 -18 -6 0 -4 -8 6 -19 16
-18 16 -20 0 -29 -11 -6 -13 -11 -5 -16 15 -10 14 -26 -2 -26 -7 0 -21 16 -31
35 -21 38 -46 47 -46 16 0 -11 -5 -23 -10 -26 -8 -5 -7 -11 1 -21 9 -11 8 -14
-5 -14 -10 0 -15 -4 -12 -9 4 -5 2 -21 -4 -36 -7 -19 -7 -31 0 -40 13 -15 3
-25 -27 -25 -22 0 -23 1 -9 23 21 32 10 124 -15 132 -19 6 -27 25 -11 25 5 0
14 11 20 25 10 22 9 25 -8 25 -26 0 -34 17 -10 23 26 7 26 23 0 37 -24 13 -26
30 -4 30 12 0 13 5 7 23 -4 12 -7 38 -6 57 1 19 -3 40 -9 47 -6 7 -8 22 -5 33
3 11 1 20 -5 20 -5 0 -6 10 -3 23 7 20 6 21 -9 6 -12 -11 -17 -37 -19 -96 -1
-59 -5 -79 -14 -76 -7 3 -13 1 -13 -3 0 -14 14 -31 30 -37 11 -4 10 -7 -7 -12
-24 -8 -28 -21 -14 -44 7 -10 5 -19 -6 -26 -14 -11 -14 -14 1 -37 16 -25 16
-27 -9 -53 -14 -16 -25 -36 -25 -45 0 -10 -7 -24 -16 -31 -15 -12 -16 -11 -10
9 6 16 3 22 -8 22 -9 0 -18 -11 -22 -25 -3 -14 -13 -25 -22 -25 -11 0 -13 3
-6 10 16 16 5 70 -12 63 -11 -4 -13 2 -7 27 5 25 2 36 -12 46 -15 11 -22 34
-27 89 0 6 3 19 7 30 7 16 6 18 -6 8 -19 -19 -31 -16 -21 5 11 20 1 54 -13 44
-6 -4 -11 -25 -13 -47 -2 -22 -8 -41 -13 -43 -17 -6 -9 -41 13 -56 l21 -15
-27 -10 c-19 -8 -32 -7 -46 2 -21 12 -27 27 -11 27 20 0 20 32 0 48 l-20 17
20 22 c16 17 17 22 6 27 -10 4 -13 14 -9 35 10 47 -4 121 -23 121 -11 0 -13 4
-6 13 15 19 10 51 -9 55 -14 3 -16 -3 -11 -33 4 -24 2 -40 -6 -44 -9 -6 -9
-15 -1 -35 14 -38 13 -49 -5 -42 -9 3 -15 0 -15 -8 0 -7 7 -19 15 -26 20 -16
19 -30 -1 -30 -12 0 -15 -6 -11 -23 7 -27 -6 -52 -23 -42 -8 5 -10 19 -5 43 6
32 5 34 -9 23 -12 -10 -16 -10 -16 -2 0 7 -4 9 -10 6 -5 -3 -10 -17 -10 -31 0
-14 -7 -27 -15 -31 -19 -6 -14 -55 7 -80 11 -14 11 -15 -7 -6 -40 21 -62 0
-69 -66 -4 -34 -12 -61 -17 -61 -6 0 -9 -6 -6 -12 2 -7 10 -12 16 -10 6 1 11
-3 11 -9 0 -6 -8 -8 -18 -5 -16 5 -19 1 -18 -26 1 -18 5 -39 10 -46 5 -9 1
-18 -10 -27 -16 -11 -20 -10 -29 9 -8 14 -8 26 -2 37 12 19 2 53 -12 44 -5 -3
-12 -1 -15 4 -3 5 1 11 9 15 23 8 19 57 -5 63 -11 3 -20 10 -20 15 0 5 4 7 9
3 6 -3 15 3 20 14 14 26 14 31 -4 31 -18 0 -19 12 -3 28 10 10 7 16 -11 29
-22 15 -23 17 -7 29 14 10 15 16 6 34 -6 11 -9 30 -6 40 4 11 9 29 12 40 4 14
1 20 -10 20 -10 0 -13 6 -9 18 6 15 5 15 -10 3 -9 -7 -17 -22 -17 -31 0 -10
-5 -20 -12 -22 -8 -3 -7 -14 5 -37 16 -33 16 -33 -5 -28 -20 6 -20 3 -15 -53
7 -63 -6 -87 -41 -76 -13 4 -18 15 -16 36 1 17 -5 38 -14 46 -12 13 -13 20 -4
35 7 11 8 27 4 39 -8 21 -8 21 -20 -5 -7 -15 -9 -31 -6 -37 4 -6 1 -14 -6 -18
-9 -6 -9 -12 -1 -29 10 -17 9 -21 -4 -21 -9 0 -13 -5 -10 -10 4 -6 1 -26 -5
-45 -12 -35 -28 -55 -27 -32 0 6 -1 21 -2 32 -2 20 -2 20 -17 0 -13 -18 -14
-17 -8 12 9 47 -13 50 -26 3 -6 -22 -8 -45 -5 -50 3 -6 -1 -10 -11 -10 -13 0
-14 -3 -5 -14 8 -10 9 -16 1 -21 -6 -3 -8 -10 -5 -15 3 -5 1 -11 -5 -15 -5 -3
-10 2 -10 13 0 11 -8 30 -17 43 -32 43 -43 68 -37 84 3 8 10 15 15 15 5 0 9 5
9 10 0 6 -7 10 -15 10 -8 0 -15 4 -15 9 0 5 7 11 15 15 22 8 18 37 -5 43 -23
6 -27 23 -6 23 21 0 15 76 -8 93 -10 7 -16 23 -15 37 1 14 1 36 0 50 -1 22 -3
23 -12 8 -5 -9 -7 -30 -5 -45 3 -15 1 -30 -4 -33 -6 -4 -6 -18 -1 -38 8 -27 7
-32 -8 -32 -15 0 -17 -9 -15 -67 2 -38 6 -83 9 -101 4 -22 2 -34 -8 -38 -15
-5 -16 -55 -2 -87 4 -10 2 -23 -5 -32 -15 -18 -32 -20 -28 -2 3 12 -28 97 -36
97 -2 0 -4 -6 -3 -12 0 -7 -1 -25 -1 -40 -3 -39 -32 -26 -32 14 0 27 -2 29
-16 17 -15 -12 -16 -11 -10 9 8 25 -18 77 -34 67 -5 -3 -11 -1 -15 5 -3 5 1
10 9 10 18 0 22 25 6 35 -6 4 -8 22 -5 43 6 36 6 36 -10 17 -16 -19 -17 -19
-11 11 4 16 3 41 -2 55 -10 27 -8 33 -28 -70 -3 -19 0 -34 11 -45 17 -16 13
-20 -17 -17 -12 2 -16 -3 -12 -13 3 -9 12 -16 20 -16 8 0 14 -4 14 -10 0 -5
-8 -10 -18 -10 -15 0 -18 -8 -18 -37 1 -21 4 -43 8 -49 4 -6 6 -24 4 -40 -4
-34 -47 -57 -68 -36 -9 9 -8 12 5 12 9 0 21 9 27 20 9 17 8 20 -9 20 -18 0
-19 3 -11 25 6 16 6 34 0 51 -6 14 -10 38 -10 54 0 22 -4 28 -15 24 -18 -7
-19 0 -5 27 9 16 7 19 -10 19 -16 0 -21 -5 -19 -22 2 -13 0 -28 -3 -34 -4 -6
-1 -23 7 -38 14 -26 13 -27 -5 -21 -23 7 -28 -13 -5 -21 21 -8 19 -21 -5 -27
-13 -3 -18 -11 -14 -20 3 -8 0 -18 -6 -22 -8 -5 -6 -13 6 -26 16 -18 16 -20
-1 -39 -10 -11 -25 -20 -34 -20 -14 1 -14 2 2 14 22 17 22 26 -3 26 -11 0 -20
5 -20 10 0 6 8 10 17 10 13 0 14 3 5 12 -7 7 -12 26 -13 42 0 25 -2 27 -8 12
-5 -14 -10 -16 -15 -7 -4 6 -3 18 3 25 12 14 4 49 -9 41 -15 -9 -21 -87 -8
-103 11 -13 10 -15 -9 -10 -24 6 -31 -6 -12 -18 8 -5 7 -10 -4 -16 -10 -5 -14
-15 -10 -26 6 -16 5 -16 -11 1 -10 10 -16 24 -13 32 3 7 0 15 -8 17 -12 2 -11
9 2 37 15 31 15 34 1 45 -11 8 -14 17 -7 27 16 25 10 57 -11 64 -24 7 -24 13
-5 39 19 25 19 46 0 46 -19 0 -19 7 0 26 21 22 19 41 -6 47 -20 5 -21 7 -5 23
11 10 14 23 10 33 -4 9 -9 36 -12 61 -2 25 -9 50 -14 57 -5 7 -7 17 -3 22 6
11 -13 96 -20 89 -3 -2 -7 -22 -10 -44 -3 -21 -8 -57 -12 -79 -4 -22 -5 -52
-4 -66 1 -17 -4 -29 -14 -33 -16 -6 -16 -8 -2 -29 14 -21 13 -24 -5 -36 -18
-11 -18 -14 -4 -36 20 -30 20 -35 1 -35 -21 0 -19 -26 5 -50 l20 -20 -25 -10
c-26 -10 -36 -52 -14 -65 7 -5 5 -13 -6 -26 -15 -15 -15 -23 -6 -51 8 -22 8
-34 1 -36 -5 -2 -10 -12 -10 -22 0 -16 -3 -17 -24 -7 -21 10 -22 13 -8 27 14
13 14 15 -6 18 -20 3 -21 5 -6 19 11 11 12 19 5 26 -6 6 -11 21 -11 33 0 13
-4 25 -9 28 -14 9 -23 -25 -10 -41 7 -7 8 -17 4 -21 -4 -4 -10 -1 -12 6 -8 21
-26 13 -20 -10 4 -12 1 -29 -6 -37 -9 -11 -9 -15 1 -19 10 -3 8 -8 -5 -17 -17
-13 -17 -14 2 -29 11 -8 15 -16 9 -16 -6 0 -21 9 -34 20 -22 19 -22 22 -8 37
11 10 14 21 8 32 -5 9 -11 24 -14 34 -3 10 -10 15 -16 12 -5 -3 -10 -2 -10 3
0 6 7 12 15 16 19 7 19 26 0 26 -11 0 -12 5 -6 23 6 14 4 44 -3 78 l-13 54 -8
-35 c-4 -19 -7 -41 -6 -49 1 -7 -2 -10 -7 -7 -6 3 -12 -13 -14 -37 -2 -23 -1
-43 4 -45 15 -7 8 -24 -7 -18 -23 8 -32 -24 -11 -39 15 -11 14 -13 -10 -19
l-28 -7 29 -19 c24 -16 26 -20 13 -25 -22 -9 -34 -1 -51 35 -14 27 -13 31 5
52 11 13 15 24 9 26 -6 2 -11 15 -11 28 0 15 -6 24 -15 24 -8 0 -15 5 -15 10
0 6 6 10 14 10 8 0 16 7 20 15 4 11 -2 15 -20 15 -23 0 -24 1 -10 16 17 17 22
54 7 54 -5 0 -9 16 -8 35 1 19 3 35 6 35 4 0 26 -14 51 -30 39 -26 45 -28 49
-13 2 10 -5 22 -14 28 -16 9 -145 94 -153 100 -9 7 93 185 106 185 4 0 37 -28
72 -62 97 -93 100 -95 100 -67 -1 18 -22 41 -80 89 -44 35 -80 69 -80 75 0 5
16 30 35 55 19 25 42 54 50 65 8 10 15 23 15 27 0 22 39 2 67 -35 40 -51 127
-147 118 -129 -4 7 -2 19 4 26 8 9 -5 27 -50 72 -33 32 -69 71 -80 86 l-19 26
69 72 69 72 66 -96 c74 -105 86 -117 86 -86 0 20 -28 68 -57 98 -7 8 -27 34
-44 59 l-31 45 22 16 c12 9 34 29 48 43 38 36 79 62 85 52 3 -4 14 -24 24 -43
61 -108 85 -150 88 -150 1 0 5 9 8 19 5 21 -22 81 -66 146 -15 22 -27 45 -27
51 0 6 32 32 71 58 84 56 80 58 130 -59 19 -44 40 -84 47 -88 8 -5 10 -17 7
-30 -7 -21 -6 -21 10 1 17 23 16 27 -34 128 -28 58 -51 107 -51 110 0 5 53 26
59 24 2 -1 7 2 10 7 7 10 74 43 89 43 5 0 19 -33 31 -72 39 -127 44 -139 59
-133 7 2 10 0 7 -5 -3 -6 -1 -10 4 -10 6 0 11 4 11 9 0 16 -62 185 -71 196
-12 12 -11 35 0 35 5 0 22 5 38 11 15 6 29 10 30 10 2 0 21 6 44 14 23 8 43
15 44 15 5 0 22 -62 35 -127 7 -35 17 -63 21 -63 5 0 9 -10 9 -22 0 -16 3 -19
11 -11 8 8 5 38 -11 112 -23 106 -23 123 1 127 7 1 40 8 72 14 31 6 61 9 66 6
4 -3 11 -38 15 -78 6 -70 23 -149 25 -118 1 13 2 13 12 0 8 -11 9 -4 5 30 -3
25 -8 75 -12 113 l-7 67 52 2 c28 1 66 2 84 2 l32 1 0 -96 c1 -77 4 -100 18
-113 16 -16 17 -11 17 99 l0 117 58 -6 c31 -3 70 -5 86 -5 l28 -1 -6 -57 c-13
-114 -16 -158 -10 -145 8 17 22 15 26 -5 2 -10 8 33 12 95 8 122 10 125 70
102 15 -5 42 -11 61 -13 20 -3 38 -7 41 -9 2 -3 -2 -34 -11 -69 -8 -35 -15
-82 -15 -104 1 -40 1 -40 19 -18 12 14 20 45 24 90 9 107 5 105 95 75 42 -14
78 -26 80 -27 4 -4 -26 -123 -40 -158 -15 -38 3 -57 24 -25 17 27 38 105 38
144 0 25 2 26 38 19 20 -4 38 -8 40 -10 2 -2 -8 -14 -22 -28 -29 -29 -34 -65
-11 -73 12 -5 12 -10 3 -27 -20 -38 -11 -86 20 -115 l29 -27 17 28 c8 16 20
25 26 22 5 -3 10 -1 10 4 0 18 18 12 23 -6 3 -10 5 0 6 21 1 39 1 39 -20 20
-16 -15 -22 -16 -29 -5 -11 18 -2 41 17 41 8 0 12 4 8 10 -3 5 -13 7 -23 4
-14 -5 -14 -3 2 10 11 9 16 19 13 23 -4 3 -7 3 -7 0 0 -4 -9 2 -20 13 -11 11
-20 22 -20 24 0 11 42 12 63 1 30 -15 57 -3 57 27 0 17 -3 18 -15 8 -32 -27
-65 20 -39 55 13 18 14 18 14 -2 0 -26 30 -35 47 -13 11 13 12 12 13 -7 0 -12
-5 -34 -10 -49 -12 -30 -4 -39 63 -71 45 -22 55 -49 32 -93 -16 -32 -14 -60 4
-60 6 0 16 18 22 41 7 23 18 43 25 46 13 5 94 -44 94 -57 0 -3 11 -13 25 -20
28 -15 32 -32 12 -52 -23 -24 -57 -85 -50 -91 3 -4 1 -7 -5 -7 -17 0 -15 -17
3 -24 10 -4 22 8 36 37 12 23 31 55 41 70 20 27 21 28 37 10 10 -10 33 -32 52
-48 71 -63 71 -69 5 -141 -24 -26 -34 -47 -34 -67 l1 -29 19 23 c10 13 33 45
50 71 18 26 41 50 51 53 9 4 17 11 17 16 0 33 132 108 195 110 27 1 32 3 16 6
-14 3 -50 27 -80 54 -71 63 -87 63 -27 -1 76 -81 52 -70 -32 16 -132 133 -302
270 -423 338 -131 74 -304 147 -409 172 -36 8 -74 19 -85 24 -17 8 -136 32
-225 45 -74 11 -240 17 -240 8z m-197 -120 c-7 -2 -19 -2 -25 0 -7 3 -2 5 12
5 14 0 19 -2 13 -5z m-88 -14 c-22 -4 -49 -8 -60 -7 -16 0 -15 2 5 8 14 4 41
8 60 8 l35 0 -40 -9z m-86 -13 c-2 -2 -62 -20 -134 -41 -263 -76 -507 -218
-726 -423 -72 -68 -191 -202 -235 -265 -96 -141 -224 -374 -224 -410 0 -7 -6
-21 -14 -32 -7 -11 -22 -48 -31 -83 -10 -34 -20 -61 -22 -58 -8 8 82 274 96
286 3 3 19 32 34 65 41 86 181 305 213 331 7 5 30 33 51 60 100 132 364 335
568 437 127 63 465 170 424 133z m1061 -196 c0 -5 -5 -10 -11 -10 -5 0 -7 5
-4 10 3 6 8 10 11 10 2 0 4 -4 4 -10z m942 -487 c25 -28 55 -95 61 -135 3 -21
4 -38 2 -38 -2 0 -17 23 -34 50 -17 28 -33 50 -37 50 -3 0 -4 -27 -2 -59 3
-68 -14 -96 -63 -103 -44 -7 -45 7 -3 36 29 20 38 33 41 61 3 28 1 35 -9 29
-10 -6 -10 -4 -2 7 10 14 18 69 10 69 -4 0 -93 -46 -166 -86 -13 -7 -26 -11
-28 -9 -9 9 22 37 93 84 100 67 113 71 137 44z m105 -95 c-3 -8 -6 -5 -6 6 -1
11 2 17 5 13 3 -3 4 -12 1 -19z m17 -65 c3 -21 6 -49 5 -63 0 -23 -1 -23 -8
-5 -12 30 -20 105 -11 105 4 0 10 -17 14 -37z m-415 -28 c32 -37 36 -45 24
-45 -12 0 -76 80 -65 80 6 0 24 -16 41 -35z m71 -64 c-1 -13 -3 -13 -15 3 -19
26 -19 42 0 26 8 -7 15 -20 15 -29z m349 -45 c1 -6 -5 -1 -13 9 -8 11 -12 24
-8 29 5 9 20 -17 21 -38z m-193 12 c4 -6 7 -26 6 -43 -1 -18 8 -56 19 -86 31
-79 35 -111 15 -103 -9 3 -16 16 -16 28 0 12 -6 30 -13 40 -13 17 -14 17 -20
2 -4 -9 -2 -28 3 -42 13 -32 13 -43 0 -24 -7 11 -10 2 -11 -32 -1 -27 -2 -54
-3 -60 -1 -7 5 -12 12 -10 20 4 14 -16 -8 -23 -26 -8 -25 -21 1 -35 19 -11 18
-25 -2 -25 -10 0 -11 -8 -2 -30 3 -10 12 -14 22 -10 10 4 8 -2 -7 -18 -28 -30
-28 -45 1 -57 l22 -9 -22 0 c-25 -1 -30 -20 -14 -50 15 -27 3 -60 -20 -54 -21
6 -23 11 -9 33 5 9 5 19 -1 27 -6 7 -7 18 -3 24 5 9 1 10 -15 6 -19 -5 -20 -3
-9 10 10 13 10 17 1 20 -8 3 -11 14 -7 29 4 15 2 24 -5 24 -6 0 -11 11 -11 24
0 14 -5 28 -10 31 -15 9 -25 -25 -13 -45 10 -14 7 -17 -18 -17 -30 0 -37 15
-17 35 8 8 8 15 -2 27 -12 14 -11 18 1 26 10 6 6 9 -16 10 -29 0 -29 1 -7 11
33 16 29 42 -5 33 -24 -6 -25 -5 -13 10 11 14 12 18 0 25 -7 4 -19 6 -27 3 -7
-3 -13 0 -13 6 0 6 -4 11 -10 11 -6 0 -6 -9 0 -25 10 -26 4 -55 -11 -55 -5 0
-9 14 -9 30 0 20 -5 30 -15 30 -14 0 -14 3 0 30 18 35 13 52 -13 43 -15 -6
-15 -5 -4 10 8 9 11 20 8 26 -4 5 3 7 16 3 18 -4 20 -2 14 14 -6 15 -5 17 5 7
19 -19 32 -16 26 7 -3 11 -2 20 3 20 12 0 20 -27 20 -67 0 -45 17 -40 51 18
21 37 30 44 57 44 40 0 51 12 57 61 3 21 7 48 9 59 2 11 4 23 5 28 2 11 19 8
27 -5z m-3109 -191 c12 -19 14 -47 3 -47 -6 0 -6 -9 0 -26 14 -36 12 -52 -4
-31 -13 16 -14 13 -18 -30 -4 -35 -1 -51 11 -60 8 -7 13 -13 10 -14 -60 -11
-129 20 -129 58 0 13 4 23 10 23 5 0 17 26 26 58 23 81 40 105 64 92 10 -6 22
-16 27 -23z m3391 -42 c0 -5 -6 4 -13 20 -8 17 -14 37 -14 45 0 8 7 -1 14 -20
7 -19 13 -39 13 -45z m-645 58 c2 -5 7 -20 11 -35 5 -22 3 -27 -13 -25 -21 1
-33 29 -24 53 6 15 19 19 26 7z m-1323 -30 c0 -5 -5 -15 -10 -23 -8 -12 -10
-11 -10 8 0 12 5 22 10 22 6 0 10 -3 10 -7z m1288 -39 c-4 -3 -12 5 -18 18
-12 22 -12 22 6 6 10 -10 15 -20 12 -24z m498 -87 c2 -23 9 -44 14 -45 16 -6
1 -22 -21 -22 -18 0 -23 10 -20 38 1 7 -8 16 -21 22 -13 5 -18 9 -11 9 6 1 17
17 24 36 11 29 15 32 22 19 5 -9 11 -35 13 -57z m-46 54 c0 -5 -7 -12 -16 -15
-14 -5 -15 -4 -4 9 14 17 20 19 20 6z m-1320 -51 c0 -5 -4 -10 -10 -10 -5 0
-10 5 -10 10 0 6 5 10 10 10 6 0 10 -4 10 -10z m-440 -4 c0 -3 -4 -8 -10 -11
-5 -3 -10 -1 -10 4 0 6 5 11 10 11 6 0 10 -2 10 -4z m274 -5 c4 -5 -1 -8 -9
-7 -21 3 -31 16 -12 16 9 0 18 -4 21 -9z m692 -48 c-10 -10 -19 5 -10 18 6 11
8 11 12 0 2 -7 1 -15 -2 -18z m-2595 -6 c-10 -9 -11 -8 -5 6 3 10 9 15 12 12
3 -3 0 -11 -7 -18z m3109 14 c0 -5 -7 -11 -15 -15 -15 -5 -20 5 -8 17 9 10 23
9 23 -2z m-155 -11 c3 -5 -1 -10 -9 -10 -9 0 -16 5 -16 10 0 6 4 10 9 10 6 0
13 -4 16 -10z m-1148 -12 c0 -7 4 -21 8 -30 5 -13 2 -18 -9 -18 -9 0 -16 -4
-16 -10 0 -5 -4 -10 -9 -10 -11 0 -8 63 4 72 15 11 22 10 22 -4z m-1672 -10
c14 -6 25 -19 25 -28 0 -9 6 -22 13 -29 10 -11 9 -13 -5 -8 -13 4 -18 -1 -20
-21 -2 -16 -10 -28 -20 -30 -12 -2 -16 1 -13 10 3 8 2 25 -3 39 l-10 24 -13
-30 c-8 -16 -18 -33 -23 -36 -5 -4 -6 -14 -3 -23 4 -9 2 -16 -4 -16 -13 0 -1
83 12 88 5 2 9 16 9 31 0 43 11 49 55 29z m1905 -8 c0 -6 -7 -13 -15 -17 -14
-5 -14 -7 1 -24 24 -26 13 -41 -14 -19 -22 18 -22 20 -6 45 17 26 34 33 34 15z
m1069 -17 c2 -2 -5 -3 -17 -3 -14 0 -22 6 -22 16 0 14 3 15 18 3 9 -7 19 -15
21 -16z m341 17 c13 -8 12 -10 -2 -10 -10 0 -18 -7 -18 -15 0 -8 -7 -15 -15
-15 -18 0 -18 5 -5 31 12 21 18 23 40 9z m-980 -10 c0 -5 -5 -10 -11 -10 -5 0
-7 5 -4 10 3 6 8 10 11 10 2 0 4 -4 4 -10z m510 1 c0 -5 -9 -11 -20 -14 -22
-6 -28 8 -7 16 19 8 27 8 27 -2z m-2993 -23 c-3 -8 -6 -5 -6 6 -1 11 2 17 5
13 3 -3 4 -12 1 -19z m1611 10 c22 -22 14 -46 -13 -44 -14 0 -25 6 -25 13 0 6
-6 14 -12 16 -10 4 -9 8 2 16 20 14 33 14 48 -1z m-518 -18 c0 -5 -4 -10 -9
-10 -6 0 -13 5 -16 10 -3 6 1 10 9 10 9 0 16 -4 16 -10z m-140 -4 c0 -11 -19
-15 -25 -6 -3 5 1 10 9 10 9 0 16 -2 16 -4z m-963 -53 c-3 -10 -5 -4 -5 12 0
17 2 24 5 18 2 -7 2 -21 0 -30z m1498 28 c3 -5 1 -12 -5 -16 -5 -3 -10 1 -10
9 0 18 6 21 15 7z m-145 -11 c0 -5 -4 -10 -10 -10 -5 0 -10 5 -10 10 0 6 5 10
10 10 6 0 10 -4 10 -10z m2365 -26 c9 -50 0 -53 -13 -4 -5 22 -6 40 -2 40 4 0
11 -16 15 -36z m-1425 5 c0 -13 -29 -43 -36 -36 -8 8 18 57 27 51 5 -3 9 -10
9 -15z m1189 -2 c-2 -1 -13 -9 -24 -17 -19 -14 -19 -14 -6 3 7 9 18 17 24 17
6 0 8 -1 6 -3z m-3302 -23 c-3 -3 -12 -4 -19 -1 -8 3 -5 6 6 6 11 1 17 -2 13
-5z m973 2 c0 -3 -4 -8 -10 -11 -5 -3 -10 -1 -10 4 0 6 5 11 10 11 6 0 10 -2
10 -4z m237 -30 c-2 -6 -14 -12 -26 -14 -20 -3 -21 -1 -12 17 12 21 45 19 38
-3z m228 13 c11 -17 -1 -21 -15 -4 -8 9 -8 15 -2 15 6 0 14 -5 17 -11z m445
-19 c0 -5 -5 -10 -11 -10 -5 0 -7 5 -4 10 3 6 8 10 11 10 2 0 4 -4 4 -10z
m-220 -4 c0 -3 -4 -8 -10 -11 -5 -3 -10 -1 -10 4 0 6 5 11 10 11 6 0 10 -2 10
-4z m463 -17 c-9 -9 -53 -1 -53 10 0 4 14 6 31 3 17 -2 27 -8 22 -13z m-2213
7 c0 -2 -7 -7 -16 -10 -8 -3 -12 -2 -9 4 6 10 25 14 25 6z m250 -29 c11 -4 9
-6 -6 -6 -23 -1 -48 21 -37 33 4 4 12 1 18 -7 5 -7 17 -16 25 -20z m660 1
c-21 -17 -40 -23 -40 -13 0 15 35 42 48 37 12 -4 11 -9 -8 -24z m2727 -5 c-3
-10 -5 -4 -5 12 0 17 2 24 5 18 2 -7 2 -21 0 -30z m-2474 11 c-3 -9 -9 -11
-12 -6 -3 5 -15 12 -26 15 -13 3 -9 5 12 6 26 1 31 -2 26 -15z m1160 1 c-3 -9
-8 -14 -10 -11 -3 3 -2 9 2 15 9 16 15 13 8 -4z m487 -5 c0 -5 -7 -10 -15 -10
-8 0 -15 5 -15 10 0 6 7 10 15 10 8 0 15 -4 15 -10z m-2422 -25 c-2 -1 -16 -5
-32 -9 -25 -6 -28 -5 -17 7 6 8 21 13 32 10 11 -3 18 -7 17 -8z m92 11 c0 -11
-19 -15 -25 -6 -3 5 1 10 9 10 9 0 16 -2 16 -4z m190 -6 c0 -5 -4 -10 -9 -10
-6 0 -13 5 -16 10 -3 6 1 10 9 10 9 0 16 -4 16 -10z m116 -5 c14 -13 14 -15 1
-15 -9 0 -23 3 -32 6 -13 5 -14 8 -3 15 17 11 17 11 34 -6z m1694 -11 c0 -8
-4 -12 -10 -9 -5 3 -10 10 -10 16 0 5 5 9 10 9 6 0 10 -7 10 -16z m-2250 -19
c10 -12 10 -15 -3 -15 -8 0 -17 7 -21 15 -3 8 -2 15 3 15 5 0 14 -7 21 -15z
m694 1 c-8 -20 -34 -29 -34 -12 0 13 13 23 32 25 4 1 5 -5 2 -13z m211 -6 c3
-5 1 -10 -4 -10 -6 0 -11 5 -11 10 0 6 2 10 4 10 3 0 8 -4 11 -10z m2120 -10
c-3 -5 -14 -10 -23 -10 -15 0 -15 2 -2 10 20 13 33 13 25 0z m-1585 -16 c0 -2
-9 -4 -20 -4 -11 0 -20 4 -20 9 0 5 9 7 20 4 11 -3 20 -7 20 -9z m716 -112 c1
-43 -1 -83 -4 -89 -4 -6 -8 32 -9 84 -1 53 0 93 4 90 3 -4 7 -42 9 -85z
m-1603 -119 c-7 -2 -21 -2 -30 0 -10 3 -4 5 12 5 17 0 24 -2 18 -5z m240 0
c-13 -2 -33 -2 -45 0 -13 2 -3 4 22 4 25 0 35 -2 23 -4z m90 0 c-13 -2 -33 -2
-45 0 -13 2 -3 4 22 4 25 0 35 -2 23 -4z m237 -2 c0 -5 -9 -7 -20 -4 -11 3
-20 7 -20 9 0 2 9 4 20 4 11 0 20 -4 20 -9z m237 -7 c-3 -3 -12 -4 -19 -1 -8
3 -5 6 6 6 11 1 17 -2 13 -5z m40 0 c-3 -3 -12 -4 -19 -1 -8 3 -5 6 6 6 11 1
17 -2 13 -5z m380 0 c-3 -3 -12 -4 -19 -1 -8 3 -5 6 6 6 11 1 17 -2 13 -5z
m216 -1 c-7 -2 -19 -2 -25 0 -7 3 -2 5 12 5 14 0 19 -2 13 -5z m1794 -39 c-3
-3 -12 -4 -19 -1 -8 3 -5 6 6 6 11 1 17 -2 13 -5z m153 -60 c0 -2 -9 0 -20 6
-11 6 -20 13 -20 16 0 2 9 0 20 -6 11 -6 20 -13 20 -16z m117 -88 l48 -50 -55
49 c-30 28 -66 58 -80 68 -24 17 -24 17 7 0 18 -9 54 -40 80 -67z m-4643 55
c-23 -4 -59 -21 -82 -40 -23 -17 -49 -31 -58 -29 -37 7 -20 -18 27 -40 48 -23
91 -26 155 -9 12 3 33 -3 48 -12 l27 -18 -46 -13 c-79 -22 -125 -89 -125 -183
0 -53 49 -156 94 -195 46 -40 73 -51 150 -62 65 -10 115 4 174 47 100 74 115
271 27 353 -22 20 -38 25 -98 28 -100 5 -99 4 -77 49 20 41 8 65 -19 38 -12
-11 -17 -9 -38 16 -14 16 -31 29 -39 29 -8 0 -14 5 -14 10 0 6 -7 10 -15 10
-8 0 -15 4 -15 10 0 9 1800 6 2540 -5 162 -2 374 -5 470 -6 96 -1 162 -5 145
-8 -16 -4 -76 -6 -132 -5 -57 1 -103 -2 -103 -6 0 -4 123 -8 273 -8 149 -1
351 -4 447 -7 96 -3 283 -7 415 -11 132 -3 244 -9 248 -13 4 -4 -56 -8 -135
-9 -276 -2 -291 -5 -63 -13 127 -5 239 -11 250 -13 11 -2 29 -5 40 -6 18 -1
19 -1 3 -11 -10 -5 -89 -10 -175 -11 -152 -1 -154 -2 -68 -9 50 -5 115 -7 145
-4 30 2 82 -2 115 -9 l60 -12 -41 -7 c-23 -4 -57 -5 -75 -2 -27 4 -30 3 -14
-4 11 -5 47 -10 80 -10 57 -1 96 -13 83 -26 -3 -3 -34 -10 -69 -14 l-64 -8 72
-2 c39 0 75 -5 78 -11 3 -5 -2 -10 -12 -11 -10 0 -3 -5 16 -10 19 -6 35 -18
38 -30 3 -10 9 -19 13 -19 4 0 10 -11 12 -25 3 -14 1 -25 -3 -25 -5 0 -9 -4
-9 -10 0 -5 10 -10 21 -10 18 0 19 -2 9 -15 -9 -11 -9 -15 -1 -15 7 0 9 -5 5
-11 -3 -6 -1 -15 7 -19 10 -7 10 -11 0 -24 -11 -13 -11 -17 3 -22 20 -8 21
-44 1 -44 -16 0 -20 -12 -8 -24 13 -12 13 -46 0 -46 -8 0 -7 -4 3 -10 8 -5 11
-10 6 -10 -5 0 -3 -7 4 -15 10 -12 9 -15 -4 -15 -10 0 -15 -4 -12 -9 3 -5 -4
-12 -17 -15 -21 -7 -21 -7 -2 -16 11 -5 15 -9 10 -9 -6 -1 -12 -11 -12 -23 -1
-13 -7 -24 -13 -26 -5 -2 -10 -10 -10 -18 0 -8 -8 -14 -17 -15 -16 0 -16 -1 1
-8 17 -6 17 -8 4 -14 -9 -3 -19 -19 -23 -36 -5 -25 -12 -31 -33 -32 -15 0 -21
-3 -14 -6 23 -9 12 -34 -20 -48 -18 -8 -26 -15 -18 -15 29 -1 -22 -30 -54 -30
-23 0 -27 -3 -16 -10 8 -5 12 -11 10 -13 -12 -10 -157 -37 -209 -39 l-56 -2
70 -5 70 -6 -92 -10 c-50 -6 -90 -8 -88 -4 5 7 -263 1 -283 -6 -7 -3 -10 -9
-7 -15 3 -5 -1 -10 -9 -10 -28 0 -67 -23 -62 -37 3 -8 -2 -13 -14 -13 -10 0
-22 -5 -25 -10 -3 -6 -1 -10 6 -10 8 0 9 -3 4 -9 -6 -6 -39 -14 -75 -19 -57
-8 -59 -10 -22 -11 45 -1 59 -20 17 -22 -37 -2 -43 -3 -51 -12 -4 -4 2 -7 14
-7 30 0 28 -18 -3 -26 -14 -3 -23 -10 -20 -14 2 -4 -11 -10 -31 -13 -20 -3
-43 -12 -51 -19 -19 -15 -31 -18 -123 -23 -41 -3 -75 -5 -75 -6 0 -1 -27 -2
-60 -3 -33 -1 -65 -5 -72 -9 -6 -4 -15 -2 -19 4 -5 8 -9 7 -14 -2 -7 -10 -12
-10 -23 -1 -7 7 -16 9 -20 6 -5 -6 -175 -6 -304 0 -36 2 -63 -1 -63 -7 0 -5
-8 -3 -17 4 -9 8 -14 10 -11 4 4 -7 -320 -10 -965 -9 -1061 1 -1227 6 -1227
35 0 5 -14 9 -31 9 -22 0 -30 4 -26 13 3 9 -10 18 -39 26 -50 15 -75 38 -55
50 15 10 -7 21 -42 22 -17 0 -14 4 13 14 l35 13 -30 2 c-16 1 -39 5 -50 9 -18
7 -18 8 -1 18 15 8 11 11 -25 18 -24 4 -36 10 -26 12 20 5 23 23 5 24 -7 0
-24 2 -38 5 -14 2 -110 6 -215 9 -104 2 -201 6 -215 9 -14 2 -36 4 -50 5 -22
1 -23 3 -8 14 14 11 5 15 -63 25 -59 8 -86 17 -105 35 -22 21 -24 25 -9 31 9
3 21 4 26 0 5 -3 9 0 9 5 0 6 -18 11 -40 11 -66 0 -125 41 -98 68 11 11 -38
62 -59 62 -7 0 -10 7 -7 15 4 8 1 15 -5 15 -6 0 -8 6 -5 14 3 7 -3 16 -13 20
-15 6 -15 8 -3 17 12 7 11 10 -7 15 -24 7 -44 75 -24 82 16 5 13 22 -4 22 -8
0 -15 6 -16 13 0 6 -2 21 -4 32 -2 10 1 25 7 32 7 9 7 13 -1 13 -7 0 -8 8 -1
24 5 15 5 27 -2 34 -6 6 -7 16 -2 24 5 7 10 22 11 33 2 11 8 22 13 23 6 2 7 8
4 14 -4 6 0 14 7 19 10 6 11 9 2 9 -25 0 -13 21 20 35 18 8 25 14 15 15 -41 1
-13 49 52 91 13 8 13 10 0 19 -13 9 -13 11 0 20 8 5 23 10 33 10 20 0 23 16 5
23 -7 2 6 7 30 11 41 8 59 26 25 26 -38 0 6 21 56 27 52 6 53 6 25 18 l-29 11
25 7 c14 4 84 10 155 13 139 6 179 14 74 14 -35 0 -82 4 -104 8 -36 6 75 15
255 19 33 0 33 0 -6 -6z m3303 -27 c-3 -3 -12 -4 -19 -1 -8 3 -5 6 6 6 11 1
17 -2 13 -5z m110 0 c-3 -3 -12 -4 -19 -1 -8 3 -5 6 6 6 11 1 17 -2 13 -5z
m-3041 -196 c29 -31 25 -54 -13 -92 -43 -41 -70 -53 -86 -37 -6 6 -31 11 -55
11 -70 0 -80 10 -77 77 l2 58 72 1 c40 1 74 4 77 7 8 8 66 -11 80 -25z m4581
-455 c-3 -10 -5 -2 -5 17 0 19 2 27 5 18 2 -10 2 -26 0 -35z m-26 -94 c-5 -13
-10 -19 -10 -12 -1 15 10 45 15 40 3 -2 0 -15 -5 -28z m-5532 -150 c43 -54
151 -146 190 -160 13 -5 21 -12 18 -15 -15 -15 -149 87 -202 153 -54 68 -58
73 -52 73 3 0 23 -23 46 -51z m5381 -143 c0 -2 -8 -10 -17 -17 -16 -13 -17
-12 -4 4 13 16 21 21 21 13z m-5082 -63 c23 -8 42 -17 42 -19 0 -7 -52 6 -87
22 -34 15 -47 32 -15 19 9 -4 36 -14 60 -22z m105 -30 c-7 -2 -21 -2 -30 0
-10 3 -4 5 12 5 17 0 24 -2 18 -5z m54 -9 c-3 -3 -12 -4 -19 -1 -8 3 -5 6 6 6
11 1 17 -2 13 -5z m383 -29 c48 -77 192 -179 303 -215 46 -14 49 -24 5 -15
-58 13 -182 85 -236 138 -66 64 -117 127 -104 127 6 0 20 -16 32 -35z m403
-242 c-7 -2 -21 -2 -30 0 -10 3 -4 5 12 5 17 0 24 -2 18 -5z m50 -10 c-7 -2
-19 -2 -25 0 -7 3 -2 5 12 5 14 0 19 -2 13 -5z m874 1 c-3 -3 -12 -4 -19 -1
-8 3 -5 6 6 6 11 1 17 -2 13 -5z"/>
<path d="M4360 3690 c-7 -25 -9 -47 -4 -60 5 -13 7 -13 15 2 5 10 5 25 0 40
-6 12 -10 21 -11 18z"/>
<path d="M4545 3609 c-4 -6 -5 -12 -2 -15 2 -3 7 2 10 11 7 17 1 20 -8 4z"/>
<path d="M1338 2793 c6 -2 18 -2 25 0 6 3 1 5 -13 5 -14 0 -19 -2 -12 -5z"/>
<path d="M1528 2793 c6 -2 18 -2 25 0 6 3 1 5 -13 5 -14 0 -19 -2 -12 -5z"/>
<path d="M1810 2790 c0 -5 5 -10 11 -10 5 0 7 5 4 10 -3 6 -8 10 -11 10 -2 0
-4 -4 -4 -10z"/>
<path d="M2890 2790 c0 -5 5 -10 10 -10 6 0 10 5 10 10 0 6 -4 10 -10 10 -5 0
-10 -4 -10 -10z"/>
<path d="M2975 2789 c-49 -5 -41 -6 43 -6 57 -1 100 2 97 6 -8 8 -63 8 -140 0z"/>
<path d="M3130 2787 c0 -4 52 -7 115 -5 63 1 115 6 115 10 0 5 -52 7 -115 6
-63 -2 -115 -7 -115 -11z"/>
<path d="M3370 2788 c0 -5 48 -7 108 -6 109 1 96 5 -36 10 -39 2 -72 0 -72 -4z"/>
<path d="M1918 2783 c6 -2 18 -2 25 0 6 3 1 5 -13 5 -14 0 -19 -2 -12 -5z"/>
<path d="M2703 2783 c9 -2 23 -2 30 0 6 3 -1 5 -18 5 -16 0 -22 -2 -12 -5z"/>
<path d="M2773 2783 c15 -2 37 -2 50 0 12 2 0 4 -28 4 -27 0 -38 -2 -22 -4z"/>
<path d="M3633 2783 c9 -2 25 -2 35 0 9 3 1 5 -18 5 -19 0 -27 -2 -17 -5z"/>
<path d="M3705 2784 c47 -7 113 -8 108 -1 -2 4 -32 6 -66 6 -34 -1 -53 -3 -42
-5z"/>
<path d="M3850 2782 c0 -10 46 -10 56 1 4 4 -7 7 -24 7 -18 0 -32 -4 -32 -8z"/>
<path d="M3930 2779 c0 -5 5 -7 10 -4 6 3 10 8 10 11 0 2 -4 4 -10 4 -5 0 -10
-5 -10 -11z"/>
<path d="M3201 2725 c-24 -19 -52 -35 -62 -35 -26 0 -23 -11 7 -33 20 -15 43
-19 114 -18 83 1 125 -12 83 -25 -105 -34 -133 -71 -133 -182 0 -123 62 -209
168 -233 60 -14 102 -4 166 39 52 36 96 120 96 185 0 15 5 27 10 27 6 0 10 -6
10 -14 0 -15 85 -76 106 -76 8 0 21 -12 31 -26 16 -25 16 -27 -2 -40 -25 -18
-69 -18 -106 1 -28 15 -30 15 -40 -11 -14 -38 -8 -56 21 -71 31 -15 127 -11
160 8 48 27 73 79 63 130 -6 32 -53 89 -74 90 -27 1 -74 36 -74 55 0 16 8 19
59 20 56 1 59 2 72 34 8 18 14 33 14 35 0 11 -96 26 -130 20 -48 -8 -107 -55
-116 -92 -6 -24 -7 -23 -25 14 -10 21 -22 44 -27 51 -13 19 -76 31 -116 22
-44 -10 -65 2 -46 25 14 17 23 65 13 65 -4 0 -15 -8 -26 -17 -17 -15 -19 -15
-15 -2 6 14 -27 46 -43 42 -4 -1 -17 9 -29 22 -34 36 -75 33 -129 -10z m368
-171 c27 -35 26 -45 -6 -76 -47 -44 -82 -57 -122 -46 -52 15 -59 23 -63 83
l-3 54 45 4 c119 9 128 8 149 -19z"/>
<path d="M4878 2723 c7 -3 16 -2 19 1 4 3 -2 6 -13 5 -11 0 -14 -3 -6 -6z"/>
<path d="M4928 2673 c12 -2 30 -2 40 0 9 3 -1 5 -23 4 -22 0 -30 -2 -17 -4z"/>
<path d="M700 2644 c-95 -41 -133 -96 -133 -194 0 -95 40 -174 103 -202 63
-29 135 -37 208 -23 33 6 37 16 23 64 -6 22 -12 24 -72 25 -98 1 -148 44 -156
130 -4 37 0 47 28 77 31 33 34 34 112 36 87 2 97 8 97 59 0 29 -3 32 -37 38
-63 10 -136 6 -173 -10z"/>
<path d="M1439 2613 c-2 -16 -2 -109 1 -208 l5 -180 48 -3 c43 -3 47 -1 48 20
4 135 3 133 25 136 27 4 48 -22 69 -88 10 -30 21 -58 24 -63 9 -9 79 -13 87
-4 8 8 -22 120 -42 159 -13 25 -12 30 11 64 42 62 29 129 -34 171 -30 20 -46
23 -136 23 l-103 0 -3 -27z m163 -57 c34 -8 46 -41 22 -67 -19 -22 -83 -27
-85 -6 -8 70 -1 90 25 82 6 -2 23 -6 38 -9z"/>
<path d="M1775 2440 c1 -110 6 -204 11 -209 12 -11 84 -22 85 -13 1 4 3 38 5
76 3 79 10 91 47 77 19 -7 29 -22 38 -53 21 -81 35 -98 79 -98 22 0 40 5 40
10 0 22 -45 165 -54 172 -5 3 3 21 18 39 25 29 28 39 23 82 -8 88 -59 116
-213 117 l-80 0 1 -200z m189 104 c22 -21 20 -39 -6 -64 -23 -21 -31 -23 -65
-14 -19 5 -23 13 -23 43 0 21 3 41 7 44 12 13 72 7 87 -9z"/>
<path d="M2210 2578 c-11 -42 -40 -138 -80 -265 -30 -93 -28 -103 19 -103 44
0 71 26 71 68 0 25 8 30 60 35 20 2 40 6 46 10 6 3 11 1 12 -6 1 -7 7 -33 13
-59 12 -48 12 -48 55 -48 24 0 46 5 49 10 4 6 -5 46 -19 88 -15 43 -28 87 -30
98 -7 33 -54 193 -61 204 -3 5 -33 10 -65 10 l-59 0 -11 -42z m83 -95 c3 -10
10 -33 15 -50 11 -33 10 -33 -24 -33 -26 0 -34 4 -34 18 0 10 3 22 8 26 7 8 8
13 11 41 1 21 17 19 24 -2z"/>
<path d="M2508 2455 c-1 -91 -2 -179 -3 -195 -3 -46 13 -52 132 -48 l108 3 3
43 3 42 -75 0 -76 0 1 148 c1 81 1 153 0 160 -1 7 -17 12 -46 12 l-45 0 -2
-165z"/>
<path d="M2837 2613 l-37 -4 2 -197 3 -196 40 -1 40 0 5 190 c5 188 4 217 -9
213 -3 -1 -23 -3 -44 -5z"/>
<path d="M2927 2605 c-2 -5 -1 -23 2 -40 6 -28 10 -30 55 -33 l49 -3 -7 -139
c-9 -165 -3 -183 52 -178 l37 3 3 145 c2 80 5 151 7 158 3 7 22 12 50 12 43 0
45 1 45 30 0 17 1 33 3 38 1 4 -64 9 -145 12 -94 3 -149 1 -151 -5z"/>
<path d="M4177 2614 c-2 -2 -29 -4 -60 -5 l-57 -2 0 -91 c-1 -50 -3 -133 -5
-184 -6 -112 3 -135 48 -130 35 3 44 23 46 99 l1 47 55 7 c78 9 112 40 120
109 8 60 -10 107 -48 127 -23 13 -94 29 -100 23z m53 -99 c33 -20 -10 -81 -57
-80 -27 0 -28 2 -24 45 1 25 5 48 7 52 4 7 54 -5 74 -17z"/>
<path d="M4407 2600 l-39 -5 -1 -195 -2 -195 43 -3 c38 -3 42 -1 43 20 7 242
10 317 14 340 6 34 -11 45 -58 38z"/>
<path d="M4527 2593 c-2 -5 -2 -25 0 -45 l5 -38 69 0 c69 0 80 -7 56 -32 -7
-7 -27 -35 -45 -63 -46 -72 -49 -76 -77 -118 -14 -21 -25 -51 -25 -67 l0 -30
113 -2 c61 -1 128 -2 147 -2 29 -1 36 3 38 23 2 12 1 34 -3 48 -6 24 -8 25
-85 21 -92 -5 -94 -20 15 144 53 79 75 121 73 138 l-3 25 -137 3 c-75 1 -138
-1 -141 -5z"/>
<path d="M4837 2592 c-3 -4 -2 -24 0 -44 l5 -38 75 0 c41 0 73 -3 71 -8 -1 -4
-18 -28 -36 -52 -100 -137 -148 -229 -124 -243 9 -6 143 -11 228 -9 61 2 62 2
67 35 3 17 1 36 -4 41 -5 6 -41 11 -81 12 -40 1 -72 3 -70 5 1 2 5 14 8 27 4
12 10 22 14 22 4 0 10 8 14 18 3 9 21 37 40 62 19 25 35 49 35 54 1 4 11 20
24 35 13 16 23 40 22 57 l0 29 -142 2 c-79 1 -144 -2 -146 -5z"/>
<path d="M5252 2587 c-6 -7 -18 -46 -26 -87 -9 -40 -20 -78 -26 -84 -5 -5 -10
-17 -10 -25 0 -9 -12 -53 -27 -99 -30 -94 -28 -102 39 -102 39 0 46 9 52 68 3
26 6 27 57 27 l54 0 8 -47 9 -48 49 0 c27 0 49 3 49 8 -1 4 -8 34 -16 67 -9
33 -19 78 -24 100 -5 22 -20 74 -34 115 -15 45 -21 79 -16 84 17 17 -23 35
-76 36 -30 0 -56 -5 -62 -13z m73 -139 c4 -18 9 -41 11 -50 4 -15 -1 -18 -26
-18 -27 0 -31 3 -25 18 5 9 10 32 13 50 2 17 8 32 12 32 5 0 11 -15 15 -32z"/>
<path d="M490 2080 c0 -32 63 -69 162 -95 66 -17 144 -17 291 1 42 5 49 4 53
-13 3 -12 27 -27 66 -42 50 -20 71 -22 124 -17 57 6 66 4 81 -15 10 -11 39
-31 64 -44 l46 -24 0 -62 c0 -46 5 -66 17 -74 9 -7 16 -17 16 -24 0 -6 4 -11
9 -11 5 0 26 -8 47 -17 22 -9 50 -15 64 -14 43 4 134 34 146 48 6 7 17 13 23
13 7 0 22 11 34 23 12 13 34 31 48 41 l26 16 7 -57 c4 -32 9 -67 10 -78 1 -11
8 -20 16 -20 9 0 12 28 11 121 -2 95 1 123 12 133 26 21 41 181 18 204 -12 12
-31 -29 -31 -68 0 -32 -32 -27 -47 8 -17 39 -89 69 -156 66 -29 -1 -59 -6 -67
-10 -8 -4 -35 -14 -60 -22 -25 -8 -94 -32 -153 -53 -106 -38 -108 -39 -123
-20 -30 41 -20 48 66 44 59 -2 80 0 80 9 0 7 -12 16 -27 20 -38 10 -214 10
-294 0 -63 -8 -67 -7 -72 13 -3 13 -10 19 -17 15 -6 -4 -9 -13 -6 -20 8 -21
-92 -38 -210 -38 -115 1 -175 15 -221 49 -34 26 -53 31 -53 14z m1286 -87 c12
-47 -15 -83 -85 -117 -58 -27 -76 -31 -153 -31 -47 0 -90 4 -94 8 -13 13 66
75 116 93 25 9 59 22 75 29 17 8 42 17 58 21 31 7 31 8 17 35 -10 19 -10 19
25 2 21 -10 38 -27 41 -40z m-553 -35 c6 -3 -10 -9 -34 -13 -47 -7 -149 20
-156 42 -4 11 63 29 132 35 26 3 31 -1 38 -27 5 -16 14 -33 20 -37z m340 28
c-34 -18 -84 -52 -111 -75 -28 -22 -54 -41 -59 -41 -16 0 -70 29 -83 45 -10
12 -7 15 17 21 43 10 116 33 139 45 21 11 118 36 144 38 8 0 -13 -14 -47 -33z
m223 -99 c-35 -46 -107 -78 -170 -76 -29 1 -29 2 9 10 98 23 114 31 142 63 36
44 52 46 19 3z m2 -74 c-30 -37 -132 -103 -182 -117 -66 -20 -97 -20 -139 -2
-49 20 -66 41 -62 77 5 40 9 43 33 30 26 -14 250 -16 282 -2 14 5 36 19 50 30
27 22 40 10 18 -16z m-225 0 c-13 -2 -33 -2 -45 0 -13 2 -3 4 22 4 25 0 35 -2
23 -4z"/>
<path d="M4404 2060 c-53 -12 -93 -34 -106 -60 -7 -14 -13 -27 -15 -29 -6 -10
-34 32 -39 59 -11 51 -29 28 -32 -40 -2 -47 2 -77 19 -117 19 -47 21 -66 16
-164 -4 -82 -3 -109 6 -106 7 2 12 10 12 18 1 8 7 42 14 77 13 60 26 77 37 48
5 -14 63 -57 111 -82 54 -30 190 -36 208 -10 7 9 16 16 22 16 17 0 35 69 28
109 -6 36 -4 39 25 51 17 7 45 26 63 43 29 27 38 30 89 28 76 -3 132 14 158
46 20 26 20 26 88 14 69 -13 195 -10 247 6 47 14 95 46 95 64 0 27 -11 28 -47
3 -19 -13 -40 -21 -45 -18 -6 4 -14 1 -18 -6 -11 -19 -119 -24 -201 -9 -41 7
-77 12 -81 11 -4 -1 -10 7 -13 18 -7 23 -25 27 -25 5 0 -12 -9 -13 -47 -7 -63
9 -241 9 -276 -1 -15 -4 -25 -12 -22 -17 11 -19 -28 -7 -121 35 -37 17 -107
24 -150 15z m-27 -59 c6 -10 24 -21 40 -25 33 -8 117 -48 121 -58 2 -5 11 -8
20 -8 21 -1 52 -23 52 -39 0 -6 5 -11 12 -11 9 0 9 -3 1 -11 -7 -7 -46 -11
-96 -10 -72 1 -94 6 -137 28 -45 23 -80 63 -80 91 0 12 39 62 48 62 4 0 12 -8
19 -19z m443 -5 c0 -49 -31 -58 -90 -26 -42 22 -33 27 68 38 13 1 22 -4 22
-12z m-230 -27 c83 -22 138 -43 152 -57 9 -9 0 -17 -36 -33 l-47 -20 -44 40
c-23 22 -61 49 -83 60 -48 24 -67 47 -31 36 13 -5 53 -16 89 -26z m344 19 c58
-16 63 -24 27 -43 -31 -16 -108 -18 -117 -3 -3 4 -2 19 2 33 7 28 25 31 88 13z
m-607 -162 c11 -19 126 -56 174 -56 43 0 115 17 135 32 24 17 34 -35 14 -73
-12 -22 -71 -49 -108 -49 -34 0 -104 21 -123 37 -8 7 -20 13 -26 13 -15 0
-103 84 -103 98 0 16 27 15 37 -2z m203 -16 c0 -5 -2 -10 -4 -10 -3 0 -8 5
-11 10 -3 6 -1 10 4 10 6 0 11 -4 11 -10z"/>
<path d="M2058 2023 c-31 -8 -20 -20 15 -16 l32 4 -34 -16 c-19 -8 -49 -31
-67 -51 -32 -34 -34 -34 -24 -8 16 41 5 39 -16 -3 -10 -21 -19 -63 -20 -96 -1
-32 -5 -61 -8 -64 -3 -3 1 -12 9 -20 8 -8 15 -24 15 -36 0 -23 39 -67 60 -67
7 0 10 -6 7 -14 -4 -10 8 -15 46 -20 43 -4 1870 -11 1960 -7 17 1 27 7 27 16
0 8 7 15 15 15 9 0 18 7 21 15 3 8 14 17 25 20 10 4 18 9 17 13 -2 9 13 64 21
77 12 21 -1 122 -20 160 -24 48 -68 85 -113 95 -35 8 -1940 11 -1968 3z m394
-90 c10 -9 18 -19 18 -23 0 -8 -56 -4 -70 5 -5 3 -16 -5 -24 -17 -13 -18 -16
-19 -16 -5 0 22 35 57 57 57 9 0 25 -7 35 -17z m698 -18 c0 -7 -13 -9 -36 -7
-26 3 -39 0 -49 -14 -12 -17 -13 -16 -8 10 3 16 15 31 27 35 24 9 66 -6 66
-24z m-1040 17 c0 -4 -4 -12 -10 -18 -5 -5 -13 -27 -18 -49 -9 -39 -9 -38 -8
17 1 48 4 58 19 58 9 0 17 -4 17 -8z m188 -4 c7 -7 12 -15 12 -19 0 -7 -51 -3
-77 6 -7 2 -20 -8 -28 -23 -15 -26 -16 -27 -9 -2 3 14 11 31 16 38 13 15 70
16 86 0z m282 -3 c0 -8 -6 -15 -14 -15 -8 0 -18 -9 -21 -21 -10 -31 -18 -15
-10 20 5 22 12 31 26 31 10 0 19 -7 19 -15z m110 -6 c0 -11 -4 -18 -9 -14 -5
3 -12 -3 -14 -12 -3 -10 -5 -3 -6 15 -1 22 4 32 14 32 8 0 15 -9 15 -21z m130
18 c0 -2 -9 -14 -20 -27 l-20 -23 0 26 c0 20 5 27 20 27 11 0 20 -2 20 -3z
m80 -15 c0 -10 -6 -19 -14 -19 -8 0 -17 9 -19 19 -4 13 0 18 14 18 12 0 19 -7
19 -18z m78 -1 c-7 -11 -15 -19 -19 -18 -4 1 -15 -7 -24 -18 -9 -11 -14 -15
-11 -9 3 6 10 23 15 38 7 16 18 26 31 26 17 0 19 -3 8 -19z m316 13 c9 -3 16
-12 16 -19 0 -9 -12 -11 -42 -8 -32 4 -45 1 -55 -13 -9 -12 -13 -13 -13 -4 0
36 51 60 94 44z m96 -9 c0 -8 -4 -15 -9 -15 -5 0 -12 -10 -14 -22 -3 -14 -5
-9 -6 15 -1 27 3 37 14 37 8 0 15 -7 15 -15z m80 -12 c0 -20 -3 -24 -9 -14 -7
11 -10 10 -14 -5 -3 -12 -5 -6 -6 14 -1 22 4 32 14 32 10 0 15 -10 15 -27z
m138 17 c1 0 2 -6 2 -14 0 -11 -12 -14 -45 -12 -39 2 -45 0 -46 -18 -1 -18 -2
-18 -9 4 -16 50 -14 53 43 46 28 -3 53 -6 55 -6z m140 -2 c21 -21 13 -26 -28
-22 -32 3 -42 -1 -55 -18 -11 -16 -15 -18 -15 -7 0 42 70 75 98 47z m160 -5
c-3 -14 -13 -18 -46 -18 -27 0 -46 -6 -52 -15 -8 -12 -10 -9 -10 11 0 34 2 36
61 38 44 1 50 -1 47 -16z m120 1 c23 -16 32 -41 10 -27 -23 13 -83 9 -90 -7
-4 -9 -7 -2 -7 18 -1 30 1 32 32 32 18 0 43 -7 55 -16z m-443 -74 c-3 -5 -16
-10 -28 -9 -20 1 -20 2 3 9 14 4 26 8 28 9 2 1 0 -3 -3 -9z m303 3 c-10 -2
-26 -2 -35 0 -10 3 -2 5 17 5 19 0 27 -2 18 -5z"/>
<path d="M2006 1984 c-5 -14 -4 -15 9 -4 17 14 19 20 6 20 -5 0 -12 -7 -15
-16z"/>
<path d="M4543 1603 c9 -2 23 -2 30 0 6 3 -1 5 -18 5 -16 0 -22 -2 -12 -5z"/>
<path d="M4350 4496 c0 -2 8 -10 18 -17 15 -13 16 -12 3 4 -13 16 -21 21 -21
13z"/>
<path d="M4580 4340 c8 -6 24 -15 35 -21 16 -8 15 -6 -4 10 -13 12 -28 21 -35
21 -6 0 -4 -5 4 -10z"/>
<path d="M3663 4265 c0 -33 2 -45 4 -27 2 18 2 45 0 60 -2 15 -4 0 -4 -33z"/>
<path d="M4465 4290 c-3 -6 1 -7 9 -4 18 7 21 14 7 14 -6 0 -13 -4 -16 -10z"/>
<path d="M3101 3722 c-7 -13 -7 -22 1 -30 13 -13 38 -4 38 14 0 8 -6 11 -15 8
-11 -5 -13 -2 -9 10 8 22 -3 20 -15 -2z"/>
<path d="M3956 3503 c-4 -9 -4 -18 -2 -21 8 -7 36 6 36 17 0 16 -28 20 -34 4z"/>
<path d="M3968 3453 c7 -3 16 -2 19 1 4 3 -2 6 -13 5 -11 0 -14 -3 -6 -6z"/>
<path d="M3850 3409 c0 -5 5 -7 10 -4 6 3 10 8 10 11 0 2 -4 4 -10 4 -5 0 -10
-5 -10 -11z"/>
<path d="M3782 3305 c0 -16 2 -22 5 -12 2 9 2 23 0 30 -3 6 -5 -1 -5 -18z"/>
<path d="M873 3083 c26 -2 67 -2 90 0 23 2 2 3 -48 3 -49 0 -68 -1 -42 -3z"/>
</g>
</svg>
